<svg width="41" height="41" viewBox="0 0 41 41" fill="none" xmlns="http://www.w3.org/2000/svg">
<path d="M0 0H41V41H0V0Z" fill="white"/>
<path d="M20.304 27.596L11.502 16.31V38.72H4.536V2H8.964L21.384 18.956L32.67 2H36.936V38.72H29.862V17.552L23.004 27.218L20.304 27.596Z" fill="#0C516E"/>
<path d="M4 34.72H37V36.72H4V34.72Z" fill="white"/>
<path d="M4 28.72H37V30.72H4V28.72Z" fill="white"/>
<path d="M4 22.72H37V24.72H4V22.72Z" fill="white"/>
<path d="M4 16.72H37V18.72H4V16.72Z" fill="white"/>
<path d="M4 10.72H37V12.72H4V10.72Z" fill="white"/>
<path d="M4 4.72H37V6.72H4V4.72Z" fill="white"/>
</svg>
