<svg width="186" height="40" viewBox="0 0 186 40" fill="none" xmlns="http://www.w3.org/2000/svg">
<path d="M11.3416 20.0157L6.42492 13.7115V26.2295H2.53377V5.71803H5.00721L11.9449 15.1895L18.2492 5.71803H20.6321V26.2295H16.6807V14.4052L12.8498 19.8046L11.3416 20.0157Z" fill="white"/>
<path d="M26.4116 21.8557C26.4116 22.278 26.5825 22.6601 26.9244 23.002C27.2662 23.3237 27.7187 23.4846 28.2818 23.4846C28.8247 23.4846 29.3677 23.3639 29.9106 23.1226C30.4737 22.8813 31.0066 22.5193 31.5093 22.0367V19.8046H28.5532C27.8695 19.8046 27.3366 20.0157 26.9545 20.438C26.5926 20.8603 26.4116 21.3329 26.4116 21.8557ZM28.3421 26.5915C26.5524 26.5915 25.2251 26.1591 24.3604 25.2944C23.4957 24.4096 23.0634 23.2634 23.0634 21.8557C23.0634 20.3475 23.5762 19.1913 24.6018 18.3869C25.6273 17.5825 26.9646 17.1803 28.6136 17.1803H31.4791C31.459 16.4363 31.2378 15.8632 30.8155 15.461C30.4133 15.0387 29.8503 14.8275 29.1263 14.8275C28.4426 14.8275 27.6986 14.9281 26.8942 15.1292C26.0898 15.3102 25.4162 15.5314 24.8732 15.7928L23.8175 12.5351C24.3806 12.153 25.2352 11.8413 26.3814 11.6C27.5478 11.3386 28.4426 11.2079 29.066 11.2079C30.8155 11.2079 32.3137 11.7207 33.5604 12.7462C34.8072 13.7517 35.4306 15.0387 35.4306 16.6072V26.2295H33.4096L32.4444 24.9928C31.9014 25.4151 31.2579 25.7871 30.5139 26.1089C29.7899 26.4306 29.066 26.5915 28.3421 26.5915Z" fill="white"/>
<path d="M46.1275 15.5515C45.4237 15.2297 44.7701 14.9884 44.1668 14.8275C43.5636 14.6466 42.9201 14.5561 42.2363 14.5561C41.7336 14.5561 41.3415 14.6566 41.06 14.8577C40.7985 15.0387 40.6678 15.3001 40.6678 15.642C40.6678 15.8833 40.8287 16.1145 41.1504 16.3357C41.4923 16.5569 42.0353 16.7983 42.7793 17.0597C44.006 17.5021 45.1421 18.1255 46.1878 18.9298C47.2335 19.7141 47.7563 20.7397 47.7563 22.0066C47.7563 23.4544 47.2335 24.5805 46.1878 25.3849C45.1622 26.1893 43.654 26.5915 41.6632 26.5915C41.0398 26.5915 40.2053 26.4708 39.1596 26.2295C38.134 25.9882 37.2794 25.6061 36.5957 25.0833L37.7721 22.2479C38.4759 22.5696 39.1496 22.821 39.7931 23.002C40.4567 23.1628 41.0599 23.2433 41.6029 23.2433C42.3268 23.2433 42.8798 23.1427 43.2619 22.9416C43.644 22.7405 43.835 22.4791 43.835 22.1574C43.835 21.7552 43.644 21.3932 43.2619 21.0715C42.8798 20.7497 42.2766 20.4581 41.4521 20.1967C40.2857 19.8146 39.1797 19.2717 38.134 18.5679C37.1085 17.8439 36.5957 16.8787 36.5957 15.6721C36.5957 14.2846 37.1085 13.1987 38.134 12.4144C39.1596 11.6101 40.5472 11.2079 42.2967 11.2079C42.9201 11.2079 43.7244 11.3386 44.7098 11.6C45.6951 11.8614 46.5598 12.2435 47.3039 12.7462L46.1275 15.5515Z" fill="white"/>
<path d="M58.0917 25.9279C57.77 26.1893 57.3075 26.4004 56.7042 26.5613C56.121 26.7423 55.5982 26.8328 55.1357 26.8328C53.3258 26.8328 51.8981 26.3803 50.8524 25.4754C49.8268 24.5504 49.314 23.2433 49.314 21.5541V14.6466H47.3534V11.6302H49.314V8.16131L53.2052 7.46754V11.6302H55.8596L57.0662 14.6466H53.2052V20.8603C53.2052 21.6245 53.3862 22.2579 53.7481 22.7607C54.1101 23.2433 54.643 23.4846 55.3468 23.4846C55.6082 23.4846 55.8697 23.4544 56.1311 23.3941C56.3925 23.3338 56.664 23.2332 56.9455 23.0925L58.0917 25.9279Z" fill="white"/>
<path d="M66.3286 26.5915C63.7948 26.5915 61.794 25.8977 60.326 24.5102C58.8781 23.1226 58.1542 21.2625 58.1542 18.9298C58.1542 16.5972 58.8077 14.727 60.1148 13.3193C61.442 11.9117 63.2418 11.2079 65.5142 11.2079C67.8066 11.2079 69.4858 11.972 70.5516 13.5003C71.6375 15.0085 72.1804 16.7983 72.1804 18.8695V20.0761H62.3168C62.4978 21.0413 62.9402 21.8155 63.644 22.3987C64.3478 22.9617 65.2729 23.2433 66.4191 23.2433C67.0827 23.2433 67.6759 23.1628 68.1988 23.002C68.7417 22.821 69.3651 22.5696 70.0689 22.2479L71.2152 25.0833C70.5314 25.6061 69.6969 25.9882 68.7116 26.2295C67.7463 26.4708 66.952 26.5915 66.3286 26.5915ZM68.4702 17.4518C68.2692 16.4664 67.9072 15.7425 67.3843 15.28C66.8615 14.7974 66.208 14.5561 65.4237 14.5561C64.6193 14.5561 63.9457 14.8074 63.4027 15.3102C62.8598 15.7928 62.5078 16.5067 62.347 17.4518H68.4702Z" fill="white"/>
<path d="M81.7099 11.6L82.4941 14.737C81.8305 14.737 81.0563 14.9281 80.1715 15.3102C79.3068 15.6922 78.4522 16.2553 77.6076 16.9993V26.2295H73.6862V11.6H75.7374L77.0344 13.7416C77.6377 13.2188 78.3717 12.7362 79.2364 12.2938C80.1011 11.8313 80.9256 11.6 81.7099 11.6Z" fill="white"/>
<path d="M89.9566 8.97574H87.5435V15.2498H90.017C91.1833 15.2498 92.1485 15.0186 92.9127 14.5561C93.6768 14.0734 94.0589 13.2892 94.0589 12.2033C94.0589 11.057 93.697 10.2326 92.973 9.72983C92.2491 9.2271 91.2436 8.97574 89.9566 8.97574ZM95.5671 26.2295L91.2235 18.3869C91.0023 18.407 90.7711 18.4271 90.5297 18.4472C90.2884 18.4472 90.0471 18.4472 89.8058 18.4472H87.5435V26.2295H83.6524V5.71803H90.0773C92.3094 5.71803 94.2198 6.23082 95.8084 7.25639C97.3971 8.28197 98.1914 9.8706 98.1914 12.0223C98.1914 13.2892 97.8596 14.3851 97.196 15.3102C96.5525 16.2151 95.7179 16.9189 94.6924 17.4216L99.7297 26.2295H95.5671Z" fill="white"/>
<path d="M103.318 21.8557C103.318 22.278 103.489 22.6601 103.831 23.002C104.172 23.3237 104.625 23.4846 105.188 23.4846C105.731 23.4846 106.274 23.3639 106.817 23.1226C107.38 22.8813 107.913 22.5193 108.416 22.0367V19.8046H105.459C104.776 19.8046 104.243 20.0157 103.861 20.438C103.499 20.8603 103.318 21.3329 103.318 21.8557ZM105.248 26.5915C103.459 26.5915 102.131 26.1591 101.267 25.2944C100.402 24.4096 99.9696 23.2634 99.9696 21.8557C99.9696 20.3475 100.482 19.1913 101.508 18.3869C102.534 17.5825 103.871 17.1803 105.52 17.1803H108.385C108.365 16.4363 108.144 15.8632 107.722 15.461C107.32 15.0387 106.757 14.8275 106.033 14.8275C105.349 14.8275 104.605 14.9281 103.8 15.1292C102.996 15.3102 102.322 15.5314 101.779 15.7928L100.724 12.5351C101.287 12.153 102.141 11.8413 103.288 11.6C104.454 11.3386 105.349 11.2079 105.972 11.2079C107.722 11.2079 109.22 11.7207 110.467 12.7462C111.713 13.7517 112.337 15.0387 112.337 16.6072V26.2295H110.316L109.351 24.9928C108.808 25.4151 108.164 25.7871 107.42 26.1089C106.696 26.4306 105.972 26.5915 105.248 26.5915Z" fill="white"/>
<path d="M117.665 13.1685C118.328 12.5049 119.153 11.9821 120.138 11.6C121.143 11.2179 122.038 11.0269 122.823 11.0269C124.813 11.0269 126.221 11.6101 127.046 12.7764C127.89 13.9427 128.312 15.3705 128.312 17.0597V26.2295H124.391V17.2407C124.391 16.3156 124.17 15.6118 123.728 15.1292C123.285 14.6264 122.642 14.3751 121.797 14.3751C121.234 14.3751 120.641 14.5259 120.017 14.8275C119.414 15.1091 118.861 15.4409 118.358 15.823V26.2295H114.437V11.6H116.488L117.665 13.1685Z" fill="white"/>
<path d="M134.529 4.93377V16.939L140.803 11.1777L143.005 13.9528L138.902 17.5423L144.272 26.2295H139.777L136.097 20.0459L134.529 21.4334V26.2295H130.637V5.26557L134.529 4.93377Z" fill="white"/>
<path d="M146.785 5.11475C147.409 5.11475 147.932 5.3259 148.354 5.7482C148.796 6.17049 149.018 6.69333 149.018 7.31672C149.018 7.94011 148.796 8.46295 148.354 8.88524C147.932 9.30754 147.409 9.51869 146.785 9.51869C146.182 9.51869 145.669 9.30754 145.247 8.88524C144.825 8.46295 144.614 7.94011 144.614 7.31672C144.614 6.69333 144.825 6.17049 145.247 5.7482C145.669 5.3259 146.182 5.11475 146.785 5.11475ZM148.746 11.6V26.2295H144.825V11.6H148.746Z" fill="white"/>
<path d="M154.262 13.1685C154.925 12.5049 155.75 11.9821 156.735 11.6C157.741 11.2179 158.636 11.0269 159.42 11.0269C161.411 11.0269 162.818 11.6101 163.643 12.7764C164.487 13.9427 164.91 15.3705 164.91 17.0597V26.2295H160.988V17.2407C160.988 16.3156 160.767 15.6118 160.325 15.1292C159.882 14.6264 159.239 14.3751 158.394 14.3751C157.831 14.3751 157.238 14.5259 156.615 14.8275C156.011 15.1091 155.458 15.4409 154.956 15.823V26.2295H151.034V11.6H153.085L154.262 13.1685Z" fill="white"/>
<path d="M174.112 14.3751C172.745 14.3751 171.789 14.8577 171.247 15.823C170.724 16.7882 170.462 17.7836 170.462 18.8092C170.462 19.9554 170.704 20.981 171.186 21.8859C171.669 22.7908 172.644 23.2433 174.112 23.2433C174.575 23.2433 175.057 23.1427 175.56 22.9416C176.083 22.7204 176.565 22.4691 177.008 22.1875V15.4308C176.565 15.1292 176.083 14.8778 175.56 14.6767C175.057 14.4756 174.575 14.3751 174.112 14.3751ZM180.959 11.6V26.1993C180.959 27.969 180.356 29.447 179.149 30.6334C177.963 31.84 176.073 32.4433 173.479 32.4433C172.855 32.4433 171.95 32.2925 170.764 31.9908C169.577 31.7093 168.592 31.3071 167.808 30.7843L168.984 28.0092C169.889 28.4516 170.663 28.7733 171.307 28.9744C171.95 29.1755 172.644 29.2761 173.388 29.2761C174.555 29.2761 175.449 28.9945 176.073 28.4315C176.696 27.8885 177.008 27.1344 177.008 26.1692V25.4151C176.384 25.777 175.721 26.0586 175.017 26.2597C174.313 26.4809 173.66 26.5915 173.056 26.5915C170.925 26.5915 169.286 25.8474 168.14 24.3593C166.993 22.8713 166.42 21.0212 166.42 18.8092C166.42 16.5972 167.024 14.7471 168.23 13.259C169.457 11.7709 171.126 11.0269 173.237 11.0269C173.961 11.0269 174.776 11.1878 175.681 11.5095C176.586 11.8111 177.36 12.2435 178.003 12.8066L178.908 11.6H180.959Z" fill="white"/>
<path d="M1.97395 8.52459H183.577V10.4918H1.97395V8.52459Z" fill="#0C516E"/>
<path d="M1.97395 13.1148H183.577V15.082H1.97395V13.1148Z" fill="#0C516E"/>
<path d="M1.97395 17.7049H183.577V19.0164H1.97395V17.7049Z" fill="#0C516E"/>
<path d="M1.97395 21.6393H183.577V23.6066H1.97395V21.6393Z" fill="#0C516E"/>
<path d="M1.97395 26.2295H183.577V28.1967H1.97395V26.2295Z" fill="#0C516E"/>
</svg>
